<svg xmlns="http://www.w3.org/2000/svg" xmlns:xlink="http://www.w3.org/1999/xlink" aria-hidden="true" role="img" class="iconify iconify--logos" width="31.88" height="32" preserveAspectRatio="xMidYMid meet" viewBox="0 0 256 257"><defs><linearGradient id="IconifyId1813088fe1fbc01fb466" x1="-.758%" x2="57.02%" y1="41.074%" y2="33.403%"><stop offset="0%" stop-color="#41D1FF"></stop><stop offset="100%" stop-color="#BD34FE"></stop></linearGradient><linearGradient id="IconifyId1813088fe1fbc01fb467" x1="43.376%" x2="50.316%" y1="86.752%" y2="5.694%"><stop offset="0%" stop-color="#FFBD4F"></stop><stop offset="100%" stop-color="#FF980E"></stop></linearGradient></defs><path fill="url(#IconifyId1813088fe1fbc01fb466)" d="M255.153 37.938L134.895 252.976c-2.483 4.44-8.862 4.466-11.382.048L.875 37.958c-2.746-4.814 1.371-10.646 6.827-9.67l120.505 21.517a6.537 6.537 0 0 0 2.322-.004l118.247-21.507c5.438-.994 9.572 4.796 6.877 9.644Z"></path><path fill="url(#IconifyId1813088fe1fbc01fb467)" d="M185.258.124L108.61 19.8a3.262 3.262 0 0 0-2.436 3.09l-4.688 78.17a3.261 3.261 0 0 0 3.934 3.378l21.402-4.916a3.261 3.261 0 0 1 3.805 3.81l-6.36 31.148a3.261 3.261 0 0 0 3.876 3.844l13.2-4.007a3.261 3.261 0 0 1 3.85 3.878l-10.052 48.625c-.842 4.085 4.285 6.282 6.615 2.847l1.115-1.653l62.122-124.03c2.09-4.174-1.531-8.867-6.076-7.922l-22.085 4.59a3.261 3.261 0 0 1-3.675-4.275l15.665-48.65A3.261 3.261 0 0 0 185.258.124Z"></path></svg>